Coordinates
version=1
nRows=9
nColumns=36
inDegrees=yes

Units are S.I. units (second, meters, Newtons, ...)
If the header above contains a line with 'inDegrees', this indicates whether rotational values are in degrees (yes) or radians (no).

endheader
time	pelvis_tilt	pelvis_list	pelvis_rotation	pelvis_tx	pelvis_ty	pelvis_tz	hip_flexion_r	hip_adduction_r	hip_rotation_r	knee_angle_r	knee_angle_r_beta	ankle_angle_r	subtalar_angle_r	mtp_angle_r	hip_flexion_l	hip_adduction_l	hip_rotation_l	knee_angle_l	knee_angle_l_beta	ankle_angle_l	subtalar_angle_l	mtp_angle_l	lumbar_extension	lumbar_bending	lumbar_rotation	arm_flex_r	arm_add_r	arm_rot_r	elbow_flex_r	pro_sup_r	arm_flex_l	arm_add_l	arm_rot_l	elbow_flex_l	pro_sup_l
      2.71666670	      2.27009289	     -3.21480773	      0.63425318	     -0.01166364	      0.93071775	      0.00307245	     52.84824077	     -0.55110643	     -0.87427970	     29.64071458	      0.51732806	     -8.47107155	    -10.64853829	     -7.49999987	      9.68904894	      2.47614896	     -6.93323412	     15.96932201	      0.27871725	      9.12223404	     -3.92435237	     -7.49999987	    -14.71218088	     -3.58450374	     -6.94070461	     -2.99158802	    -10.98634904	     23.31985522	     70.08377632	     85.33506782	      8.28397284	     -7.62334138	     24.04246610	     32.01274065	     78.45111891
      2.73333330	      2.20849874	     -2.97370174	      0.50259012	     -0.00781041	      0.93048151	      0.00045697	     52.87858452	     -0.78733805	     -0.78515264	     29.54788127	      0.51570782	     -8.54399854	    -10.35999336	     -7.49999987	     10.01413089	      2.63635685	     -7.48641863	     16.66353933	      0.29083363	      9.03840748	     -3.89955749	     -7.49999987	    -14.79457500	     -3.95120272	     -6.99657915	     -3.05813921	    -11.07715882	     23.36824498	     70.32103040	     85.34024104	      8.18109873	     -7.72994054	     23.96870516	     31.86916715	     78.43835530
      2.75000000	      1.77976512	     -2.74503928	      0.35435344	     -0.00889598	      0.92963137	      0.00067753	     53.39411957	     -0.95669148	     -0.47059066	     29.59289195	      0.51649340	     -8.28747910	    -10.14330727	     -7.49999987	     10.81645557	      2.72045631	     -7.97854709	     17.73333747	      0.30950513	      9.99328943	     -3.06592278	     -7.49999987	    -14.42864967	     -4.30168497	     -7.05693678	     -3.38383002	    -11.46713143	     23.78332121	     71.40412427	     84.21275799	      7.82800171	     -7.77032534	     23.54233144	     31.87800817	     77.22998403
      2.76666670	      1.45524902	     -2.54468098	      0.45181171	     -0.01258812	      0.93069549	      0.00209835	     53.70311537	     -1.26598692	     -0.47407440	     29.15841654	      0.50891037	     -8.35959222	     -9.71767178	     -7.49999987	     11.69939983	      2.78641006	     -8.19040320	     18.51640660	      0.32317226	      9.98962962	     -2.79458114	     -7.49999987	    -14.47477352	     -4.58941543	     -7.35427515	     -3.58049821	    -11.56905739	     23.79140232	     72.11209866	     83.47615993	      7.54158632	     -8.12346960	     23.42879880	     32.49314710	     76.60223344
      2.78333330	      1.20974114	     -2.44487487	      0.76152062	     -0.01224298	      0.92937789	      0.00106733	     53.82148489	     -1.61259107	     -0.29718896	     28.88542250	      0.50414573	     -8.65346493	    -10.07466281	     -7.49999987	     12.19185258	      2.75991427	     -8.31767726	     18.87645922	      0.32945636	     10.62689176	     -1.70901663	     -7.49999987	    -14.52297094	     -4.74212952	     -7.63147033	     -3.92233081	    -11.97927271	     24.21322845	     73.46638585	     82.21014454	      7.36518756	     -8.26972456	     23.10625853	     32.83464525	     75.27323647
      2.80000000	      0.68802882	     -2.47639971	      1.06574709	     -0.01173455	      0.92635511	      0.00003953	     54.24615751	     -1.96399887	     -0.62270472	     28.68280996	      0.50060947	     -8.38433746	     -9.31309508	     -7.49999987	     12.75529313	      2.71031540	     -8.27597012	     18.91859580	      0.33019179	     10.63725973	     -1.67853435	     -7.49999987	    -14.12759456	     -4.78109592	     -7.99681085	     -4.11492168	    -12.08970402	     24.19158651	     73.99313477	     81.34846277	      6.95614966	     -8.62448363	     23.10193131	     33.70190132	     74.67116102
      2.81666670	      0.45203265	     -2.33114073	      1.02865166	     -0.01037040	      0.92971257	     -0.00161650	     54.27465481	     -2.15961006	     -0.48430872	     28.72247747	      0.50130180	     -8.96692204	    -10.18910945	     -7.49999987	     12.71626863	      2.85781980	     -8.58542271	     18.58659724	      0.32439732	      9.72314315	     -1.41283233	     -7.49999987	    -13.94290775	     -4.98831662	     -8.05651641	     -4.17425336	    -12.51246305	     24.65472742	     75.11360093	     80.86255442	      6.83335537	     -8.71096797	     23.08600597	     33.56807045	     74.00476468
      2.83333330	      0.06213438	     -2.55124343	      1.20692674	     -0.01117172	      0.93006528	     -0.00158160	     54.24038116	     -2.23724724	     -0.37807660	     28.65261112	      0.50008240	     -8.94653080	    -10.04711721	     -7.49999987	     13.14874840	      2.64302097	     -8.34611009	     18.68182654	      0.32605938	      9.73722805	     -1.12515670	     -7.49999987	    -13.60959587	     -4.74691359	     -8.06330955	     -4.28443453	    -12.81974771	     24.73394403	     75.68272124	     80.48176565	      6.54466760	     -8.82992606	     23.13144606	     33.94621890	     73.61517674
      2.85000000	     -0.22436992	     -2.93952206	      1.28517453	     -0.01054524	      0.92909515	     -0.00150022	     54.21608503	     -2.14631692	     -0.38509759	     28.74689754	      0.50172801	     -9.27881386	    -10.49748720	     -7.49999987	     13.24659067	      2.31397923	     -8.28447947	     18.03194993	      0.31471690	     10.11555196	     -0.05244985	     -7.49999987	    -13.42273906	     -4.29302321	     -7.78104776	     -4.43029207	    -13.61607599	     25.18315000	     77.18968249	     81.45830640	      6.55186694	     -8.76921268	     23.60227968	     33.57130772	     73.33868661
